<svg xmlns="http://www.w3.org/2000/svg" xmlns:xlink="http://www.w3.org/1999/xlink" width="2000" zoomAndPan="magnify" viewBox="0 0 1440 809.999993" height="2000" preserveAspectRatio="xMidYMid meet" version="1.0"><defs><clipPath id="d74e356d70"><path d="M 219 9 L 1153 9 L 1153 804.890625 L 219 804.890625 Z M 219 9 " clip-rule="nonzero"/></clipPath><clipPath id="1ca9c8b303"><path d="M 775.851562 152.578125 C 983.726562 154.882812 1000.625 149.507812 1011.375 150.785156 C 1017.007812 151.300781 1020.59375 152.324219 1023.664062 154.628906 C 1026.738281 157.1875 1029.296875 162.308594 1030.066406 165.636719 C 1030.832031 168.707031 1030.320312 171.78125 1029.550781 174.339844 C 1028.527344 176.898438 1027.25 179.714844 1024.945312 181.761719 C 1022.128906 184.066406 1017.519531 184.066406 1013.167969 186.628906 C 1006 191.234375 997.296875 199.171875 987.824219 209.414062 C 972.976562 225.027344 955.566406 253.1875 935.855469 275.460938 C 913.582031 300.292969 885.933594 329.734375 859.566406 350.472656 C 836.269531 368.902344 800.683594 392.199219 787.882812 395.785156 C 783.789062 396.808594 781.996094 396.550781 779.179688 395.527344 C 775.59375 394.246094 770.988281 390.664062 768.683594 387.589844 C 766.890625 385.289062 766.125 382.214844 765.867188 379.398438 C 765.609375 376.582031 765.867188 373.253906 767.148438 370.695312 C 768.9375 367.109375 771.5 364.039062 776.109375 361.222656 C 785.835938 355.335938 807.597656 350.726562 827.050781 346.628906 C 852.398438 341.253906 892.589844 335.109375 915.375 333.574219 C 929.453125 332.550781 939.695312 333.0625 950.191406 334.085938 C 959.152344 334.855469 967.597656 335.878906 975.023438 338.4375 C 981.679688 340.742188 988.847656 343.558594 993.199219 348.167969 C 997.550781 352.773438 999.855469 357.382812 1001.902344 365.320312 C 1005.742188 380.167969 1005.230469 413.703125 1004.976562 434.695312 C 1004.976562 452.105469 1003.695312 470.28125 1002.160156 482.570312 C 1001.136719 490.503906 1000.367188 494.601562 998.0625 501.515625 C 995.246094 511.242188 990.382812 523.785156 984.496094 534.28125 C 978.609375 545.035156 970.671875 555.273438 962.992188 565.003906 C 955.3125 574.730469 946.351562 586.25 938.414062 592.652344 C 932.78125 597.261719 927.664062 599.5625 922.03125 602.125 C 916.398438 604.429688 912.046875 605.707031 904.621094 607.242188 C 891.566406 610.058594 868.269531 613.132812 850.09375 614.15625 C 832.683594 615.4375 817.324219 615.4375 797.867188 614.410156 C 773.292969 613.132812 731.050781 613.132812 714.667969 605.453125 C 705.960938 601.355469 703.402344 598.539062 698.027344 589.578125 C 684.714844 567.820312 670.890625 490.25 660.136719 460.554688 C 654.25 444.167969 651.175781 438.023438 644.265625 423.433594 C 633.769531 401.414062 613.289062 369.160156 601.257812 342.023438 C 589.734375 316.421875 580.777344 293.382812 572.839844 265.222656 C 563.625 232.964844 549.800781 173.316406 551.078125 158.210938 C 551.589844 153.859375 552.359375 152.578125 554.152344 150.273438 C 556.457031 147.457031 561.320312 144.132812 564.648438 143.105469 C 567.464844 142.339844 570.535156 142.339844 573.09375 143.105469 C 575.910156 143.875 578.726562 145.15625 580.777344 147.203125 C 583.335938 149.761719 586.664062 154.113281 586.40625 158.46875 C 586.40625 164.097656 580.261719 171.523438 574.632812 178.433594 C 566.953125 187.90625 552.613281 196.867188 542.628906 208.386719 C 531.621094 221.1875 522.664062 233.988281 512.167969 252.164062 C 497.0625 278.023438 475.8125 332.804688 464.804688 351.496094 C 459.941406 359.175781 458.40625 363.527344 453.285156 367.367188 C 447.910156 371.207031 439.460938 374.535156 433.574219 373.765625 C 428.195312 373.253906 422.820312 368.390625 418.980469 364.296875 C 415.140625 360.199219 414.628906 354.824219 411.042969 349.445312 C 405.667969 341.511719 398.757812 332.039062 388.515625 321.796875 C 372.386719 306.183594 339.105469 284.421875 319.90625 268.292969 C 305.570312 256.003906 296.355469 245.765625 282.785156 234.5 C 267.9375 222.210938 240.542969 207.621094 233.375 197.636719 C 230.046875 193.027344 229.023438 189.445312 229.28125 185.347656 C 229.28125 181.25 231.585938 176.386719 234.402344 173.570312 C 236.960938 170.5 241.824219 168.195312 245.921875 167.9375 C 250.015625 167.425781 255.648438 168.195312 258.464844 171.523438 C 262.304688 175.875 261.792969 186.371094 262.304688 196.867188 C 262.816406 214.277344 256.671875 242.691406 256.160156 266.246094 C 255.394531 289.796875 256.671875 313.09375 258.210938 337.925781 C 259.746094 364.550781 263.839844 389.128906 265.632812 420.617188 C 267.679688 461.832031 266.144531 519.945312 267.679688 564.234375 C 268.960938 602.378906 269.984375 634.890625 273.3125 670.222656 C 276.640625 706.0625 278.175781 773.390625 288.160156 777.230469 C 292.515625 779.023438 294.5625 767.503906 304.035156 763.917969 C 335.265625 752.398438 452.773438 764.429688 530.085938 761.359375 C 612.007812 758.03125 705.960938 750.605469 782.761719 744.207031 C 847.789062 738.832031 906.671875 733.199219 962.480469 726.285156 C 1011.632812 720.140625 1077.167969 710.671875 1100.722656 705.550781 C 1109.171875 703.5 1115.570312 704.269531 1117.617188 700.6875 C 1119.667969 697.101562 1114.546875 693.261719 1113.523438 684.046875 C 1108.914062 643.085938 1120.179688 440.328125 1118.640625 339.976562 C 1117.363281 262.148438 1109.683594 187.140625 1108.402344 132.097656 C 1107.632812 95.746094 1119.410156 50.6875 1109.171875 41.984375 C 1103.792969 37.121094 1097.136719 44.289062 1084.59375 45.3125 C 1045.167969 48.128906 920.238281 45.058594 835.5 48.128906 C 747.179688 51.199219 639.402344 60.929688 564.902344 64.511719 C 512.167969 66.816406 479.140625 67.839844 430.5 69.121094 C 372.132812 70.65625 266.144531 78.847656 239.007812 72.449219 C 231.074219 70.402344 227.234375 68.867188 224.417969 64.769531 C 221.855469 60.671875 220.832031 52.992188 222.625 48.640625 C 224.417969 44.03125 230.5625 38.914062 235.167969 37.890625 C 239.777344 36.863281 247.457031 38.914062 250.785156 42.242188 C 254.371094 45.570312 256.929688 52.992188 256.160156 57.855469 C 255.394531 62.464844 250.527344 68.867188 246.175781 70.914062 C 241.824219 72.707031 234.144531 72.449219 230.046875 69.890625 C 225.695312 67.328125 222.113281 60.417969 221.601562 55.808594 C 221.089844 52.226562 222.113281 48.128906 224.417969 45.3125 C 227.234375 41.730469 231.585938 39.425781 239.007812 37.632812 C 257.953125 33.023438 308.898438 39.167969 347.8125 38.65625 C 392.867188 38.144531 435.363281 36.351562 494.246094 33.792969 C 584.105469 29.695312 727.464844 18.6875 834.21875 14.59375 C 929.199219 11.265625 1068.210938 10.238281 1104.050781 10.238281 C 1112.753906 10.238281 1115.3125 9.472656 1120.691406 10.496094 C 1125.808594 11.519531 1131.1875 12.800781 1135.027344 16.128906 C 1139.121094 19.457031 1141.9375 23.550781 1143.988281 30.976562 C 1148.59375 48.640625 1142.707031 88.320312 1143.21875 125.953125 C 1144.242188 181.507812 1151.15625 256.515625 1152.433594 331.78125 C 1153.972656 422.921875 1151.921875 563.210938 1149.363281 633.613281 C 1148.082031 671.757812 1153.203125 706.0625 1143.988281 721.167969 C 1139.121094 729.359375 1129.652344 730.894531 1122.996094 733.453125 C 1117.363281 735.757812 1114.800781 735.757812 1106.609375 737.550781 C 1082.800781 742.160156 1013.9375 752.65625 964.269531 759.054688 C 910 765.710938 851.117188 771.34375 794.027344 776.464844 C 736.683594 781.839844 673.195312 786.703125 620.96875 790.289062 C 577.449219 792.847656 548.007812 794.640625 501.414062 796.175781 C 436.132812 798.222656 294.304688 812.046875 265.632812 799.757812 C 257.441406 796.175781 256.671875 793.617188 253.089844 785.933594 C 243.871094 765.710938 240.542969 708.621094 236.960938 660.75 C 231.839844 596.234375 234.402344 492.554688 231.074219 433.417969 C 228.769531 395.273438 224.160156 369.160156 222.113281 339.460938 C 220.578125 312.324219 219.039062 286.726562 219.808594 261.636719 C 220.578125 237.828125 223.648438 207.621094 226.71875 192.773438 C 228.257812 185.347656 230.304688 176.644531 231.839844 176.644531 C 233.632812 176.644531 237.730469 200.195312 236.449219 200.707031 C 235.679688 200.964844 230.5625 193.285156 229.535156 189.699219 C 228.769531 186.882812 229.023438 183.8125 230.046875 180.996094 C 230.816406 178.433594 232.351562 175.621094 234.402344 173.570312 C 236.191406 171.265625 238.753906 169.476562 241.570312 168.707031 C 245.152344 167.683594 249.25 167.425781 254.625 169.21875 C 266.914062 173.570312 292.769531 195.585938 309.152344 209.15625 C 323.746094 221.1875 333.730469 232.707031 349.347656 245.765625 C 368.804688 262.40625 401.828125 284.164062 417.699219 300.039062 C 427.941406 310.277344 434.851562 319.238281 439.972656 327.6875 C 443.8125 333.832031 449.445312 342.789062 447.652344 345.09375 C 445.859375 347.398438 430.5 345.351562 428.707031 341.511719 C 426.40625 336.390625 440.230469 323.589844 446.886719 310.789062 C 456.613281 291.847656 466.851562 259.84375 479.652344 237.574219 C 491.6875 216.324219 510.628906 191.234375 520.871094 179.714844 C 525.734375 174.082031 528.292969 171.011719 533.160156 168.195312 C 538.277344 165.125 547.75 166.148438 551.078125 162.5625 C 553.894531 159.492188 552.359375 153.347656 554.152344 150.273438 C 555.6875 147.714844 558.246094 145.921875 560.550781 144.644531 C 563.109375 143.363281 566.183594 142.59375 569 142.59375 C 571.816406 142.59375 574.632812 143.105469 577.191406 144.644531 C 580.261719 146.691406 583.078125 148.996094 585.640625 154.113281 C 591.273438 166.148438 593.320312 200.195312 598.441406 221.957031 C 603.304688 242.4375 608.679688 263.429688 615.082031 281.605469 C 620.457031 297.734375 625.578125 309.253906 633.511719 325.894531 C 644.265625 348.679688 664.234375 381.191406 675.496094 404.742188 C 684.203125 422.664062 689.832031 434.183594 696.746094 453.898438 C 706.730469 481.800781 717.738281 540.425781 725.929688 558.347656 C 729.257812 565.257812 729.257812 568.332031 734.632812 571.660156 C 746.15625 578.570312 781.738281 577.546875 802.730469 578.570312 C 821.164062 579.339844 836.78125 579.339844 854.1875 577.804688 C 871.851562 576.011719 896.171875 573.195312 907.949219 568.332031 C 914.351562 565.515625 916.398438 563.210938 921.519531 558.347656 C 930.476562 549.128906 946.09375 528.652344 953.519531 514.570312 C 959.664062 503.050781 962.734375 495.882812 965.550781 481.289062 C 970.414062 456.199219 978.863281 387.847656 968.367188 374.535156 C 963.503906 368.390625 955.054688 370.953125 947.117188 370.183594 C 937.648438 369.160156 927.664062 368.902344 914.863281 369.925781 C 894.894531 371.207031 863.40625 376.328125 840.621094 380.933594 C 820.140625 385.289062 794.027344 396.296875 783.53125 396.039062 C 779.433594 396.039062 777.644531 395.273438 775.082031 393.734375 C 772.523438 392.457031 770.21875 390.152344 768.683594 387.589844 C 767.148438 385.289062 766.125 382.214844 765.867188 379.398438 C 765.609375 376.582031 766.125 373.253906 767.148438 370.695312 C 768.425781 367.878906 769.453125 366.34375 772.523438 363.527344 C 781.484375 355.335938 815.53125 338.183594 832.683594 325.125 C 846.765625 314.117188 856.75 303.878906 868.78125 292.101562 C 882.09375 279.300781 895.917969 265.734375 909.230469 250.628906 C 923.308594 234.246094 937.648438 211.714844 950.445312 197.125 C 959.917969 186.117188 967.085938 177.667969 977.070312 169.988281 C 987.3125 162.050781 1002.929688 151.554688 1011.375 150.785156 C 1016.496094 150.273438 1020.59375 152.324219 1023.664062 154.628906 C 1026.738281 157.1875 1029.296875 162.308594 1030.066406 165.636719 C 1030.832031 168.707031 1030.578125 171.523438 1029.550781 174.339844 C 1028.015625 177.667969 1025.710938 181.761719 1021.359375 184.324219 C 1014.703125 188.164062 1004.71875 188.933594 989.871094 190.210938 C 953.519531 193.285156 838.0625 188.675781 802.476562 186.628906 C 788.394531 185.859375 779.949219 185.859375 772.78125 184.066406 C 768.425781 182.789062 765.097656 181.507812 762.796875 178.949219 C 760.234375 176.386719 758.699219 171.78125 758.441406 168.707031 C 758.1875 166.148438 758.957031 163.585938 760.234375 161.28125 C 761.257812 159.234375 762.796875 156.929688 765.097656 155.652344 C 767.660156 153.859375 775.851562 152.578125 775.851562 152.578125 " clip-rule="nonzero"/></clipPath><clipPath id="1a044897c8"><path d="M 0 0.359375 L 934 0.359375 L 934 795.890625 L 0 795.890625 Z M 0 0.359375 " clip-rule="nonzero"/></clipPath><clipPath id="d3e10ceabe"><path d="M 556.851562 143.578125 C 764.726562 145.882812 781.625 140.507812 792.375 141.785156 C 798.007812 142.300781 801.59375 143.324219 804.664062 145.628906 C 807.738281 148.1875 810.296875 153.308594 811.066406 156.636719 C 811.832031 159.707031 811.320312 162.78125 810.550781 165.339844 C 809.527344 167.898438 808.25 170.714844 805.945312 172.761719 C 803.128906 175.066406 798.519531 175.066406 794.167969 177.628906 C 787 182.234375 778.296875 190.171875 768.824219 200.414062 C 753.976562 216.027344 736.566406 244.1875 716.855469 266.460938 C 694.582031 291.292969 666.933594 320.734375 640.566406 341.472656 C 617.269531 359.902344 581.683594 383.199219 568.882812 386.785156 C 564.789062 387.808594 562.996094 387.550781 560.179688 386.527344 C 556.59375 385.246094 551.988281 381.664062 549.683594 378.589844 C 547.890625 376.289062 547.125 373.214844 546.867188 370.398438 C 546.609375 367.582031 546.867188 364.253906 548.148438 361.695312 C 549.9375 358.109375 552.5 355.039062 557.109375 352.222656 C 566.835938 346.335938 588.597656 341.726562 608.050781 337.628906 C 633.398438 332.253906 673.589844 326.109375 696.375 324.574219 C 710.453125 323.550781 720.695312 324.0625 731.191406 325.085938 C 740.152344 325.855469 748.597656 326.878906 756.023438 329.4375 C 762.679688 331.742188 769.847656 334.558594 774.199219 339.167969 C 778.550781 343.773438 780.855469 348.382812 782.902344 356.320312 C 786.742188 371.167969 786.230469 404.703125 785.976562 425.695312 C 785.976562 443.105469 784.695312 461.28125 783.160156 473.570312 C 782.136719 481.503906 781.367188 485.601562 779.0625 492.515625 C 776.246094 502.242188 771.382812 514.785156 765.496094 525.28125 C 759.609375 536.035156 751.671875 546.273438 743.992188 556.003906 C 736.3125 565.730469 727.351562 577.25 719.414062 583.652344 C 713.78125 588.261719 708.664062 590.5625 703.03125 593.125 C 697.398438 595.429688 693.046875 596.707031 685.621094 598.242188 C 672.566406 601.058594 649.269531 604.132812 631.09375 605.15625 C 613.683594 606.4375 598.324219 606.4375 578.867188 605.410156 C 554.292969 604.132812 512.050781 604.132812 495.667969 596.453125 C 486.960938 592.355469 484.402344 589.539062 479.027344 580.578125 C 465.714844 558.820312 451.890625 481.25 441.136719 451.554688 C 435.25 435.167969 432.175781 429.023438 425.265625 414.433594 C 414.769531 392.414062 394.289062 360.160156 382.257812 333.023438 C 370.734375 307.421875 361.777344 284.382812 353.839844 256.222656 C 344.625 223.964844 330.800781 164.316406 332.078125 149.210938 C 332.589844 144.859375 333.359375 143.578125 335.152344 141.273438 C 337.457031 138.457031 342.320312 135.132812 345.648438 134.105469 C 348.464844 133.339844 351.535156 133.339844 354.09375 134.105469 C 356.910156 134.875 359.726562 136.15625 361.777344 138.203125 C 364.335938 140.761719 367.664062 145.113281 367.40625 149.46875 C 367.40625 155.097656 361.261719 162.523438 355.632812 169.433594 C 347.953125 178.90625 333.613281 187.867188 323.628906 199.386719 C 312.621094 212.1875 303.664062 224.988281 293.167969 243.164062 C 278.0625 269.023438 256.8125 323.804688 245.804688 342.496094 C 240.941406 350.175781 239.40625 354.527344 234.285156 358.367188 C 228.910156 362.207031 220.460938 365.535156 214.574219 364.765625 C 209.195312 364.253906 203.820312 359.390625 199.980469 355.296875 C 196.140625 351.199219 195.628906 345.824219 192.042969 340.445312 C 186.667969 332.511719 179.757812 323.039062 169.515625 312.796875 C 153.386719 297.183594 120.105469 275.421875 100.90625 259.292969 C 86.570312 247.003906 77.355469 236.765625 63.785156 225.5 C 48.9375 213.210938 21.542969 198.621094 14.375 188.636719 C 11.046875 184.027344 10.023438 180.445312 10.28125 176.347656 C 10.28125 172.25 12.585938 167.386719 15.402344 164.570312 C 17.960938 161.5 22.824219 159.195312 26.921875 158.9375 C 31.015625 158.425781 36.648438 159.195312 39.464844 162.523438 C 43.304688 166.875 42.792969 177.371094 43.304688 187.867188 C 43.816406 205.277344 37.671875 233.691406 37.160156 257.246094 C 36.394531 280.796875 37.671875 304.09375 39.210938 328.925781 C 40.746094 355.550781 44.839844 380.128906 46.632812 411.617188 C 48.679688 452.832031 47.144531 510.945312 48.679688 555.234375 C 49.960938 593.378906 50.984375 625.890625 54.3125 661.222656 C 57.640625 697.0625 59.175781 764.390625 69.160156 768.230469 C 73.515625 770.023438 75.5625 758.503906 85.035156 754.917969 C 116.265625 743.398438 233.773438 755.429688 311.085938 752.359375 C 393.007812 749.03125 486.960938 741.605469 563.761719 735.207031 C 628.789062 729.832031 687.671875 724.199219 743.480469 717.285156 C 792.632812 711.140625 858.167969 701.671875 881.722656 696.550781 C 890.171875 694.5 896.570312 695.269531 898.617188 691.6875 C 900.667969 688.101562 895.546875 684.261719 894.523438 675.046875 C 889.914062 634.085938 901.179688 431.328125 899.640625 330.976562 C 898.363281 253.148438 890.683594 178.140625 889.402344 123.097656 C 888.632812 86.746094 900.410156 41.6875 890.171875 32.984375 C 884.792969 28.121094 878.136719 35.289062 865.59375 36.3125 C 826.167969 39.128906 701.238281 36.058594 616.5 39.128906 C 528.179688 42.199219 420.402344 51.929688 345.902344 55.511719 C 293.167969 57.816406 260.140625 58.839844 211.5 60.121094 C 153.132812 61.65625 47.144531 69.847656 20.007812 63.449219 C 12.074219 61.402344 8.234375 59.867188 5.417969 55.769531 C 2.855469 51.671875 1.832031 43.992188 3.625 39.640625 C 5.417969 35.03125 11.5625 29.914062 16.167969 28.890625 C 20.777344 27.863281 28.457031 29.914062 31.785156 33.242188 C 35.371094 36.570312 37.929688 43.992188 37.160156 48.855469 C 36.394531 53.464844 31.527344 59.867188 27.175781 61.914062 C 22.824219 63.707031 15.144531 63.449219 11.046875 60.890625 C 6.695312 58.328125 3.113281 51.417969 2.601562 46.808594 C 2.089844 43.226562 3.113281 39.128906 5.417969 36.3125 C 8.234375 32.730469 12.585938 30.425781 20.007812 28.632812 C 38.953125 24.023438 89.898438 30.167969 128.8125 29.65625 C 173.867188 29.144531 216.363281 27.351562 275.246094 24.792969 C 365.105469 20.695312 508.464844 9.6875 615.21875 5.59375 C 710.199219 2.265625 849.210938 1.238281 885.050781 1.238281 C 893.753906 1.238281 896.3125 0.472656 901.691406 1.496094 C 906.808594 2.519531 912.1875 3.800781 916.027344 7.128906 C 920.121094 10.457031 922.9375 14.550781 924.988281 21.976562 C 929.59375 39.640625 923.707031 79.320312 924.21875 116.953125 C 925.242188 172.507812 932.15625 247.515625 933.433594 322.78125 C 934.972656 413.921875 932.921875 554.210938 930.363281 624.613281 C 929.082031 662.757812 934.203125 697.0625 924.988281 712.167969 C 920.121094 720.359375 910.652344 721.894531 903.996094 724.453125 C 898.363281 726.757812 895.800781 726.757812 887.609375 728.550781 C 863.800781 733.160156 794.9375 743.65625 745.269531 750.054688 C 691 756.710938 632.117188 762.34375 575.027344 767.464844 C 517.683594 772.839844 454.195312 777.703125 401.96875 781.289062 C 358.449219 783.847656 329.007812 785.640625 282.414062 787.175781 C 217.132812 789.222656 75.304688 803.046875 46.632812 790.757812 C 38.441406 787.175781 37.671875 784.617188 34.089844 776.933594 C 24.871094 756.710938 21.542969 699.621094 17.960938 651.75 C 12.839844 587.234375 15.402344 483.554688 12.074219 424.417969 C 9.769531 386.273438 5.160156 360.160156 3.113281 330.460938 C 1.578125 303.324219 0.0390625 277.726562 0.808594 252.636719 C 1.578125 228.828125 4.648438 198.621094 7.71875 183.773438 C 9.257812 176.347656 11.304688 167.644531 12.839844 167.644531 C 14.632812 167.644531 18.730469 191.195312 17.449219 191.707031 C 16.679688 191.964844 11.5625 184.285156 10.535156 180.699219 C 9.769531 177.882812 10.023438 174.8125 11.046875 171.996094 C 11.816406 169.433594 13.351562 166.621094 15.402344 164.570312 C 17.191406 162.265625 19.753906 160.476562 22.570312 159.707031 C 26.152344 158.683594 30.25 158.425781 35.625 160.21875 C 47.914062 164.570312 73.769531 186.585938 90.152344 200.15625 C 104.746094 212.1875 114.730469 223.707031 130.347656 236.765625 C 149.804688 253.40625 182.828125 275.164062 198.699219 291.039062 C 208.941406 301.277344 215.851562 310.238281 220.972656 318.6875 C 224.8125 324.832031 230.445312 333.789062 228.652344 336.09375 C 226.859375 338.398438 211.5 336.351562 209.707031 332.511719 C 207.40625 327.390625 221.230469 314.589844 227.886719 301.789062 C 237.613281 282.847656 247.851562 250.84375 260.652344 228.574219 C 272.6875 207.324219 291.628906 182.234375 301.871094 170.714844 C 306.734375 165.082031 309.292969 162.011719 314.160156 159.195312 C 319.277344 156.125 328.75 157.148438 332.078125 153.5625 C 334.894531 150.492188 333.359375 144.347656 335.152344 141.273438 C 336.6875 138.714844 339.246094 136.921875 341.550781 135.644531 C 344.109375 134.363281 347.183594 133.59375 350 133.59375 C 352.816406 133.59375 355.632812 134.105469 358.191406 135.644531 C 361.261719 137.691406 364.078125 139.996094 366.640625 145.113281 C 372.273438 157.148438 374.320312 191.195312 379.441406 212.957031 C 384.304688 233.4375 389.679688 254.429688 396.082031 272.605469 C 401.457031 288.734375 406.578125 300.253906 414.511719 316.894531 C 425.265625 339.679688 445.234375 372.191406 456.496094 395.742188 C 465.203125 413.664062 470.832031 425.183594 477.746094 444.898438 C 487.730469 472.800781 498.738281 531.425781 506.929688 549.347656 C 510.257812 556.257812 510.257812 559.332031 515.632812 562.660156 C 527.15625 569.570312 562.738281 568.546875 583.730469 569.570312 C 602.164062 570.339844 617.78125 570.339844 635.1875 568.804688 C 652.851562 567.011719 677.171875 564.195312 688.949219 559.332031 C 695.351562 556.515625 697.398438 554.210938 702.519531 549.347656 C 711.476562 540.128906 727.09375 519.652344 734.519531 505.570312 C 740.664062 494.050781 743.734375 486.882812 746.550781 472.289062 C 751.414062 447.199219 759.863281 378.847656 749.367188 365.535156 C 744.503906 359.390625 736.054688 361.953125 728.117188 361.183594 C 718.648438 360.160156 708.664062 359.902344 695.863281 360.925781 C 675.894531 362.207031 644.40625 367.328125 621.621094 371.933594 C 601.140625 376.289062 575.027344 387.296875 564.53125 387.039062 C 560.433594 387.039062 558.644531 386.273438 556.082031 384.734375 C 553.523438 383.457031 551.21875 381.152344 549.683594 378.589844 C 548.148438 376.289062 547.125 373.214844 546.867188 370.398438 C 546.609375 367.582031 547.125 364.253906 548.148438 361.695312 C 549.425781 358.878906 550.453125 357.34375 553.523438 354.527344 C 562.484375 346.335938 596.53125 329.183594 613.683594 316.125 C 627.765625 305.117188 637.75 294.878906 649.78125 283.101562 C 663.09375 270.300781 676.917969 256.734375 690.230469 241.628906 C 704.308594 225.246094 718.648438 202.714844 731.445312 188.125 C 740.917969 177.117188 748.085938 168.667969 758.070312 160.988281 C 768.3125 153.050781 783.929688 142.554688 792.375 141.785156 C 797.496094 141.273438 801.59375 143.324219 804.664062 145.628906 C 807.738281 148.1875 810.296875 153.308594 811.066406 156.636719 C 811.832031 159.707031 811.578125 162.523438 810.550781 165.339844 C 809.015625 168.667969 806.710938 172.761719 802.359375 175.324219 C 795.703125 179.164062 785.71875 179.933594 770.871094 181.210938 C 734.519531 184.285156 619.0625 179.675781 583.476562 177.628906 C 569.394531 176.859375 560.949219 176.859375 553.78125 175.066406 C 549.425781 173.789062 546.097656 172.507812 543.796875 169.949219 C 541.234375 167.386719 539.699219 162.78125 539.441406 159.707031 C 539.1875 157.148438 539.957031 154.585938 541.234375 152.28125 C 542.257812 150.234375 543.796875 147.929688 546.097656 146.652344 C 548.660156 144.859375 556.851562 143.578125 556.851562 143.578125 " clip-rule="nonzero"/></clipPath><clipPath id="426dbc9112"><rect x="0" width="934" y="0" height="796"/></clipPath></defs><g clip-path="url(#d74e356d70)"><g clip-path="url(#1ca9c8b303)"><g transform="matrix(1, 0, 0, 1, 219, 9)"><g clip-path="url(#426dbc9112)"><g clip-path="url(#1a044897c8)"><g clip-path="url(#d3e10ceabe)"><rect x="-535.8" width="2073.6" fill="#cf7041" height="1166.39999" y="-187.199998" fill-opacity="1"/></g></g></g></g></g></g></svg>