<svg xmlns="http://www.w3.org/2000/svg" xmlns:xlink="http://www.w3.org/1999/xlink" width="1000" zoomAndPan="magnify" viewBox="0 0 612 791.999994" height="1000" preserveAspectRatio="xMidYMid meet" version="1.0"><defs><clipPath id="257a692d41"><path d="M 58 124 L 303.914062 124 L 303.914062 333.191406 L 58 333.191406 Z M 58 124 " clip-rule="nonzero"/></clipPath><clipPath id="b8fc39b415"><path d="M 204.261719 161.738281 C 258.898438 162.34375 263.339844 160.929688 266.164062 161.265625 C 267.644531 161.402344 268.585938 161.671875 269.394531 162.277344 C 270.203125 162.949219 270.875 164.292969 271.078125 165.167969 C 271.28125 165.976562 271.144531 166.785156 270.941406 167.457031 C 270.671875 168.128906 270.335938 168.871094 269.730469 169.410156 C 268.992188 170.015625 267.78125 170.015625 266.636719 170.6875 C 264.753906 171.898438 262.464844 173.984375 259.976562 176.675781 C 256.070312 180.78125 251.496094 188.183594 246.316406 194.035156 C 240.460938 200.5625 233.195312 208.300781 226.261719 213.75 C 220.140625 218.597656 210.789062 224.71875 207.421875 225.660156 C 206.347656 225.929688 205.875 225.863281 205.136719 225.59375 C 204.191406 225.257812 202.980469 224.316406 202.375 223.507812 C 201.90625 222.902344 201.703125 222.09375 201.636719 221.355469 C 201.570312 220.613281 201.636719 219.742188 201.972656 219.066406 C 202.445312 218.125 203.117188 217.316406 204.328125 216.578125 C 206.882812 215.03125 212.605469 213.820312 217.71875 212.742188 C 224.378906 211.328125 234.945312 209.714844 240.933594 209.3125 C 244.632812 209.042969 247.324219 209.175781 250.082031 209.445312 C 252.4375 209.648438 254.660156 209.917969 256.609375 210.589844 C 258.359375 211.195312 260.242188 211.933594 261.386719 213.144531 C 262.53125 214.355469 263.136719 215.570312 263.675781 217.65625 C 264.683594 221.558594 264.550781 230.371094 264.484375 235.890625 C 264.484375 240.464844 264.148438 245.242188 263.742188 248.472656 C 263.472656 250.558594 263.273438 251.636719 262.667969 253.453125 C 261.925781 256.007812 260.648438 259.304688 259.101562 262.066406 C 257.550781 264.890625 255.464844 267.582031 253.449219 270.140625 C 251.429688 272.695312 249.074219 275.722656 246.988281 277.40625 C 245.507812 278.617188 244.164062 279.222656 242.683594 279.894531 C 241.203125 280.5 240.058594 280.835938 238.105469 281.242188 C 234.675781 281.980469 228.550781 282.789062 223.773438 283.058594 C 219.199219 283.394531 215.160156 283.394531 210.046875 283.125 C 203.585938 282.789062 192.484375 282.789062 188.179688 280.769531 C 185.890625 279.695312 185.21875 278.953125 183.804688 276.597656 C 180.304688 270.878906 176.671875 250.492188 173.847656 242.683594 C 172.296875 238.378906 171.492188 236.765625 169.675781 232.929688 C 166.914062 227.140625 161.53125 218.664062 158.371094 211.53125 C 155.34375 204.800781 152.988281 198.746094 150.902344 191.34375 C 148.480469 182.867188 144.84375 167.1875 145.179688 163.21875 C 145.316406 162.074219 145.519531 161.738281 145.988281 161.132812 C 146.59375 160.390625 147.871094 159.515625 148.746094 159.25 C 149.488281 159.046875 150.296875 159.046875 150.96875 159.25 C 151.707031 159.449219 152.449219 159.785156 152.988281 160.324219 C 153.660156 160.996094 154.535156 162.140625 154.46875 163.285156 C 154.46875 164.765625 152.851562 166.71875 151.371094 168.535156 C 149.351562 171.023438 145.585938 173.378906 142.960938 176.40625 C 140.066406 179.769531 137.710938 183.136719 134.953125 187.914062 C 130.984375 194.710938 125.398438 209.109375 122.503906 214.019531 C 121.226562 216.039062 120.824219 217.183594 119.476562 218.191406 C 118.0625 219.203125 115.84375 220.078125 114.296875 219.875 C 112.882812 219.742188 111.46875 218.460938 110.460938 217.386719 C 109.453125 216.308594 109.316406 214.894531 108.375 213.484375 C 106.960938 211.398438 105.144531 208.90625 102.453125 206.214844 C 98.214844 202.109375 89.46875 196.390625 84.421875 192.152344 C 80.652344 188.921875 78.230469 186.230469 74.664062 183.269531 C 70.761719 180.039062 63.5625 176.203125 61.675781 173.582031 C 60.800781 172.371094 60.53125 171.425781 60.601562 170.351562 C 60.601562 169.273438 61.207031 167.996094 61.945312 167.253906 C 62.617188 166.449219 63.898438 165.84375 64.972656 165.773438 C 66.050781 165.640625 67.53125 165.84375 68.269531 166.71875 C 69.28125 167.859375 69.144531 170.621094 69.28125 173.378906 C 69.414062 177.953125 67.800781 185.421875 67.664062 191.613281 C 67.464844 197.804688 67.800781 203.925781 68.203125 210.453125 C 68.609375 217.453125 69.683594 223.914062 70.15625 232.1875 C 70.695312 243.023438 70.289062 258.296875 70.695312 269.9375 C 71.03125 279.964844 71.300781 288.507812 72.175781 297.792969 C 73.046875 307.214844 73.453125 324.910156 76.078125 325.921875 C 77.21875 326.390625 77.757812 323.363281 80.25 322.421875 C 88.457031 319.394531 119.34375 322.554688 139.664062 321.75 C 161.195312 320.875 185.890625 318.921875 206.078125 317.242188 C 223.167969 315.828125 238.644531 314.347656 253.3125 312.53125 C 266.234375 310.914062 283.457031 308.425781 289.648438 307.082031 C 291.871094 306.542969 293.550781 306.742188 294.089844 305.800781 C 294.628906 304.859375 293.28125 303.851562 293.011719 301.429688 C 291.800781 290.660156 294.761719 237.371094 294.359375 210.992188 C 294.023438 190.539062 292.003906 170.820312 291.667969 156.355469 C 291.464844 146.800781 294.5625 134.957031 291.871094 132.667969 C 290.457031 131.390625 288.707031 133.273438 285.410156 133.542969 C 275.046875 134.285156 242.210938 133.476562 219.9375 134.285156 C 196.722656 135.09375 168.394531 137.648438 148.816406 138.589844 C 134.953125 139.195312 126.273438 139.464844 113.488281 139.800781 C 98.148438 140.207031 70.289062 142.359375 63.15625 140.675781 C 61.070312 140.136719 60.0625 139.734375 59.320312 138.65625 C 58.648438 137.582031 58.378906 135.5625 58.851562 134.417969 C 59.320312 133.207031 60.9375 131.863281 62.148438 131.59375 C 63.359375 131.324219 65.378906 131.863281 66.253906 132.738281 C 67.195312 133.613281 67.867188 135.5625 67.664062 136.839844 C 67.464844 138.050781 66.183594 139.734375 65.042969 140.273438 C 63.898438 140.742188 61.878906 140.675781 60.800781 140.003906 C 59.660156 139.332031 58.714844 137.515625 58.582031 136.304688 C 58.445312 135.359375 58.714844 134.285156 59.320312 133.542969 C 60.0625 132.601562 61.207031 131.996094 63.15625 131.527344 C 68.136719 130.3125 81.527344 131.929688 91.753906 131.792969 C 103.597656 131.660156 114.765625 131.1875 130.242188 130.515625 C 153.863281 129.441406 191.542969 126.546875 219.601562 125.46875 C 244.566406 124.59375 281.101562 124.324219 290.523438 124.324219 C 292.8125 124.324219 293.484375 124.125 294.898438 124.394531 C 296.242188 124.664062 297.65625 125 298.664062 125.875 C 299.742188 126.75 300.480469 127.824219 301.019531 129.777344 C 302.230469 134.417969 300.683594 144.847656 300.820312 154.738281 C 301.089844 169.339844 302.90625 189.058594 303.242188 208.839844 C 303.644531 232.792969 303.105469 269.667969 302.433594 288.171875 C 302.097656 298.199219 303.441406 307.214844 301.019531 311.183594 C 299.742188 313.339844 297.253906 313.742188 295.503906 314.414062 C 294.023438 315.019531 293.351562 315.019531 291.195312 315.492188 C 284.9375 316.703125 266.839844 319.460938 253.785156 321.144531 C 239.519531 322.894531 224.042969 324.375 209.039062 325.71875 C 193.964844 327.132812 177.277344 328.410156 163.550781 329.351562 C 152.113281 330.027344 144.375 330.496094 132.128906 330.898438 C 114.96875 331.4375 77.691406 335.070312 70.15625 331.84375 C 68.003906 330.898438 67.800781 330.226562 66.859375 328.207031 C 64.4375 322.894531 63.5625 307.886719 62.617188 295.304688 C 61.273438 278.347656 61.945312 251.097656 61.070312 235.554688 C 60.464844 225.527344 59.253906 218.664062 58.714844 210.859375 C 58.3125 203.726562 57.910156 196.996094 58.109375 190.402344 C 58.3125 184.144531 59.121094 176.203125 59.925781 172.300781 C 60.332031 170.351562 60.871094 168.0625 61.273438 168.0625 C 61.746094 168.0625 62.820312 174.253906 62.484375 174.386719 C 62.28125 174.457031 60.9375 172.4375 60.667969 171.496094 C 60.464844 170.753906 60.53125 169.945312 60.800781 169.207031 C 61.003906 168.535156 61.40625 167.792969 61.945312 167.253906 C 62.417969 166.648438 63.089844 166.179688 63.832031 165.976562 C 64.773438 165.707031 65.847656 165.640625 67.261719 166.113281 C 70.492188 167.253906 77.289062 173.042969 81.59375 176.609375 C 85.429688 179.769531 88.054688 182.800781 92.160156 186.230469 C 97.273438 190.605469 105.953125 196.324219 110.125 200.496094 C 112.816406 203.1875 114.632812 205.542969 115.976562 207.761719 C 116.988281 209.378906 118.46875 211.734375 117.996094 212.339844 C 117.527344 212.945312 113.488281 212.40625 113.019531 211.398438 C 112.414062 210.050781 116.046875 206.6875 117.796875 203.320312 C 120.351562 198.34375 123.042969 189.933594 126.40625 184.078125 C 129.570312 178.492188 134.550781 171.898438 137.242188 168.871094 C 138.519531 167.390625 139.191406 166.582031 140.472656 165.84375 C 141.816406 165.035156 144.308594 165.304688 145.179688 164.363281 C 145.921875 163.554688 145.519531 161.941406 145.988281 161.132812 C 146.394531 160.460938 147.066406 159.988281 147.671875 159.652344 C 148.34375 159.316406 149.152344 159.113281 149.890625 159.113281 C 150.632812 159.113281 151.371094 159.25 152.042969 159.652344 C 152.851562 160.191406 153.59375 160.796875 154.265625 162.140625 C 155.746094 165.304688 156.285156 174.253906 157.628906 179.972656 C 158.910156 185.355469 160.320312 190.875 162.003906 195.652344 C 163.417969 199.890625 164.761719 202.917969 166.847656 207.292969 C 169.675781 213.28125 174.921875 221.828125 177.882812 228.015625 C 180.171875 232.726562 181.652344 235.753906 183.46875 240.9375 C 186.09375 248.269531 188.984375 263.679688 191.140625 268.390625 C 192.015625 270.207031 192.015625 271.015625 193.425781 271.886719 C 196.453125 273.707031 205.808594 273.4375 211.324219 273.707031 C 216.171875 273.90625 220.273438 273.90625 224.851562 273.503906 C 229.492188 273.03125 235.886719 272.292969 238.980469 271.015625 C 240.664062 270.273438 241.203125 269.667969 242.546875 268.390625 C 244.902344 265.96875 249.007812 260.585938 250.957031 256.882812 C 252.574219 253.855469 253.378906 251.972656 254.121094 248.136719 C 255.398438 241.542969 257.621094 223.574219 254.859375 220.078125 C 253.582031 218.460938 251.363281 219.132812 249.277344 218.933594 C 246.785156 218.664062 244.164062 218.597656 240.796875 218.867188 C 235.550781 219.203125 227.273438 220.546875 221.285156 221.757812 C 215.902344 222.902344 209.039062 225.796875 206.277344 225.730469 C 205.203125 225.730469 204.730469 225.527344 204.058594 225.125 C 203.386719 224.785156 202.78125 224.179688 202.375 223.507812 C 201.972656 222.902344 201.703125 222.09375 201.636719 221.355469 C 201.570312 220.613281 201.703125 219.742188 201.972656 219.066406 C 202.308594 218.328125 202.578125 217.921875 203.386719 217.183594 C 205.742188 215.03125 214.691406 210.523438 219.199219 207.089844 C 222.898438 204.195312 225.523438 201.503906 228.6875 198.410156 C 232.183594 195.046875 235.820312 191.480469 239.316406 187.507812 C 243.019531 183.203125 246.785156 177.28125 250.152344 173.445312 C 252.640625 170.550781 254.523438 168.332031 257.148438 166.3125 C 259.839844 164.226562 263.945312 161.46875 266.164062 161.265625 C 267.511719 161.132812 268.585938 161.671875 269.394531 162.277344 C 270.203125 162.949219 270.875 164.292969 271.078125 165.167969 C 271.28125 165.976562 271.210938 166.71875 270.941406 167.457031 C 270.539062 168.332031 269.933594 169.410156 268.789062 170.082031 C 267.039062 171.089844 264.414062 171.292969 260.511719 171.628906 C 250.957031 172.4375 220.613281 171.226562 211.257812 170.6875 C 207.558594 170.484375 205.335938 170.484375 203.453125 170.015625 C 202.308594 169.679688 201.433594 169.339844 200.828125 168.667969 C 200.15625 167.996094 199.753906 166.785156 199.683594 165.976562 C 199.617188 165.304688 199.820312 164.632812 200.15625 164.027344 C 200.425781 163.488281 200.828125 162.882812 201.433594 162.546875 C 202.105469 162.074219 204.261719 161.738281 204.261719 161.738281 " clip-rule="nonzero"/></clipPath><clipPath id="04b67546d9"><path d="M 0 0.078125 L 245.839844 0.078125 L 245.839844 209.191406 L 0 209.191406 Z M 0 0.078125 " clip-rule="nonzero"/></clipPath><clipPath id="02c6e10ba0"><path d="M 146.261719 37.738281 C 200.898438 38.34375 205.339844 36.929688 208.164062 37.265625 C 209.644531 37.402344 210.585938 37.671875 211.394531 38.277344 C 212.203125 38.949219 212.875 40.292969 213.078125 41.167969 C 213.28125 41.976562 213.144531 42.785156 212.941406 43.457031 C 212.671875 44.128906 212.335938 44.871094 211.730469 45.410156 C 210.992188 46.015625 209.78125 46.015625 208.636719 46.6875 C 206.753906 47.898438 204.464844 49.984375 201.976562 52.675781 C 198.070312 56.78125 193.496094 64.183594 188.316406 70.035156 C 182.460938 76.5625 175.195312 84.300781 168.261719 89.75 C 162.140625 94.597656 152.789062 100.71875 149.421875 101.660156 C 148.347656 101.929688 147.875 101.863281 147.136719 101.59375 C 146.191406 101.257812 144.980469 100.316406 144.375 99.507812 C 143.90625 98.902344 143.703125 98.09375 143.636719 97.355469 C 143.570312 96.613281 143.636719 95.742188 143.972656 95.066406 C 144.445312 94.125 145.117188 93.316406 146.328125 92.578125 C 148.882812 91.03125 154.605469 89.820312 159.71875 88.742188 C 166.378906 87.328125 176.945312 85.714844 182.933594 85.3125 C 186.632812 85.042969 189.324219 85.175781 192.082031 85.445312 C 194.4375 85.648438 196.660156 85.917969 198.609375 86.589844 C 200.359375 87.195312 202.242188 87.933594 203.386719 89.144531 C 204.53125 90.355469 205.136719 91.570312 205.675781 93.65625 C 206.683594 97.558594 206.550781 106.371094 206.484375 111.890625 C 206.484375 116.464844 206.148438 121.242188 205.742188 124.472656 C 205.472656 126.558594 205.273438 127.636719 204.667969 129.453125 C 203.925781 132.007812 202.648438 135.304688 201.101562 138.066406 C 199.550781 140.890625 197.464844 143.582031 195.449219 146.140625 C 193.429688 148.695312 191.074219 151.722656 188.988281 153.40625 C 187.507812 154.617188 186.164062 155.222656 184.683594 155.894531 C 183.203125 156.5 182.058594 156.835938 180.105469 157.242188 C 176.675781 157.980469 170.550781 158.789062 165.773438 159.058594 C 161.199219 159.394531 157.160156 159.394531 152.046875 159.125 C 145.585938 158.789062 134.484375 158.789062 130.179688 156.769531 C 127.890625 155.695312 127.21875 154.953125 125.804688 152.597656 C 122.304688 146.878906 118.671875 126.492188 115.847656 118.683594 C 114.296875 114.378906 113.492188 112.765625 111.675781 108.929688 C 108.914062 103.140625 103.53125 94.664062 100.371094 87.53125 C 97.34375 80.800781 94.988281 74.746094 92.902344 67.34375 C 90.480469 58.867188 86.84375 43.1875 87.179688 39.21875 C 87.316406 38.074219 87.519531 37.738281 87.988281 37.132812 C 88.59375 36.390625 89.871094 35.515625 90.746094 35.25 C 91.488281 35.046875 92.296875 35.046875 92.96875 35.25 C 93.707031 35.449219 94.449219 35.785156 94.988281 36.324219 C 95.660156 36.996094 96.535156 38.140625 96.46875 39.285156 C 96.46875 40.765625 94.851562 42.71875 93.371094 44.535156 C 91.351562 47.023438 87.585938 49.378906 84.960938 52.40625 C 82.066406 55.769531 79.710938 59.136719 76.953125 63.914062 C 72.984375 70.710938 67.398438 85.109375 64.503906 90.019531 C 63.226562 92.039062 62.824219 93.183594 61.476562 94.191406 C 60.0625 95.203125 57.84375 96.078125 56.296875 95.875 C 54.882812 95.742188 53.46875 94.460938 52.460938 93.386719 C 51.453125 92.308594 51.316406 90.894531 50.375 89.484375 C 48.960938 87.398438 47.144531 84.90625 44.453125 82.214844 C 40.214844 78.109375 31.46875 72.390625 26.421875 68.152344 C 22.652344 64.921875 20.230469 62.230469 16.664062 59.269531 C 12.761719 56.039062 5.5625 52.203125 3.675781 49.582031 C 2.800781 48.371094 2.53125 47.425781 2.601562 46.351562 C 2.601562 45.273438 3.207031 43.996094 3.945312 43.253906 C 4.617188 42.449219 5.898438 41.84375 6.972656 41.773438 C 8.050781 41.640625 9.53125 41.84375 10.269531 42.71875 C 11.28125 43.859375 11.144531 46.621094 11.28125 49.378906 C 11.414062 53.953125 9.800781 61.421875 9.664062 67.613281 C 9.464844 73.804688 9.800781 79.925781 10.203125 86.453125 C 10.609375 93.453125 11.683594 99.914062 12.15625 108.1875 C 12.695312 119.023438 12.289062 134.296875 12.695312 145.9375 C 13.03125 155.964844 13.300781 164.507812 14.175781 173.792969 C 15.046875 183.214844 15.453125 200.910156 18.078125 201.921875 C 19.21875 202.390625 19.757812 199.363281 22.25 198.421875 C 30.457031 195.394531 61.34375 198.554688 81.664062 197.75 C 103.195312 196.875 127.890625 194.921875 148.078125 193.242188 C 165.167969 191.828125 180.644531 190.347656 195.3125 188.53125 C 208.234375 186.914062 225.457031 184.425781 231.648438 183.082031 C 233.871094 182.542969 235.550781 182.742188 236.089844 181.800781 C 236.628906 180.859375 235.28125 179.851562 235.011719 177.429688 C 233.800781 166.660156 236.761719 113.371094 236.359375 86.992188 C 236.023438 66.539062 234.003906 46.820312 233.667969 32.355469 C 233.464844 22.800781 236.5625 10.957031 233.871094 8.667969 C 232.457031 7.390625 230.707031 9.273438 227.410156 9.542969 C 217.046875 10.285156 184.210938 9.476562 161.9375 10.285156 C 138.722656 11.09375 110.394531 13.648438 90.816406 14.589844 C 76.953125 15.195312 68.273438 15.464844 55.488281 15.800781 C 40.148438 16.207031 12.289062 18.359375 5.15625 16.675781 C 3.070312 16.136719 2.0625 15.734375 1.320312 14.65625 C 0.648438 13.582031 0.378906 11.5625 0.851562 10.417969 C 1.320312 9.207031 2.9375 7.863281 4.148438 7.59375 C 5.359375 7.324219 7.378906 7.863281 8.253906 8.738281 C 9.195312 9.613281 9.867188 11.5625 9.664062 12.839844 C 9.464844 14.050781 8.183594 15.734375 7.042969 16.273438 C 5.898438 16.742188 3.878906 16.675781 2.800781 16.003906 C 1.660156 15.332031 0.714844 13.515625 0.582031 12.304688 C 0.445312 11.359375 0.714844 10.285156 1.320312 9.542969 C 2.0625 8.601562 3.207031 7.996094 5.15625 7.527344 C 10.136719 6.3125 23.527344 7.929688 33.753906 7.792969 C 45.597656 7.660156 56.765625 7.1875 72.242188 6.515625 C 95.863281 5.441406 133.542969 2.546875 161.601562 1.46875 C 186.566406 0.59375 223.101562 0.324219 232.523438 0.324219 C 234.8125 0.324219 235.484375 0.125 236.898438 0.394531 C 238.242188 0.664062 239.65625 1 240.664062 1.875 C 241.742188 2.75 242.480469 3.824219 243.019531 5.777344 C 244.230469 10.417969 242.683594 20.847656 242.820312 30.738281 C 243.089844 45.339844 244.90625 65.058594 245.242188 84.839844 C 245.644531 108.792969 245.105469 145.667969 244.433594 164.171875 C 244.097656 174.199219 245.441406 183.214844 243.019531 187.183594 C 241.742188 189.339844 239.253906 189.742188 237.503906 190.414062 C 236.023438 191.019531 235.351562 191.019531 233.195312 191.492188 C 226.9375 192.703125 208.839844 195.460938 195.785156 197.144531 C 181.519531 198.894531 166.042969 200.375 151.039062 201.71875 C 135.964844 203.132812 119.277344 204.410156 105.550781 205.351562 C 94.113281 206.027344 86.375 206.496094 74.128906 206.898438 C 56.96875 207.4375 19.691406 211.070312 12.15625 207.84375 C 10.003906 206.898438 9.800781 206.226562 8.859375 204.207031 C 6.4375 198.894531 5.5625 183.886719 4.617188 171.304688 C 3.273438 154.347656 3.945312 127.097656 3.070312 111.554688 C 2.464844 101.527344 1.253906 94.664062 0.714844 86.859375 C 0.3125 79.726562 -0.0898438 72.996094 0.109375 66.402344 C 0.3125 60.144531 1.121094 52.203125 1.925781 48.300781 C 2.332031 46.351562 2.871094 44.0625 3.273438 44.0625 C 3.746094 44.0625 4.820312 50.253906 4.484375 50.386719 C 4.28125 50.457031 2.9375 48.4375 2.667969 47.496094 C 2.464844 46.753906 2.53125 45.945312 2.800781 45.207031 C 3.003906 44.535156 3.40625 43.792969 3.945312 43.253906 C 4.417969 42.648438 5.089844 42.179688 5.832031 41.976562 C 6.773438 41.707031 7.847656 41.640625 9.261719 42.113281 C 12.492188 43.253906 19.289062 49.042969 23.59375 52.609375 C 27.429688 55.769531 30.054688 58.800781 34.160156 62.230469 C 39.273438 66.605469 47.953125 72.324219 52.125 76.496094 C 54.816406 79.1875 56.632812 81.542969 57.976562 83.761719 C 58.988281 85.378906 60.46875 87.734375 59.996094 88.339844 C 59.527344 88.945312 55.488281 88.40625 55.019531 87.398438 C 54.414062 86.050781 58.046875 82.6875 59.796875 79.320312 C 62.351562 74.34375 65.042969 65.933594 68.40625 60.078125 C 71.570312 54.492188 76.550781 47.898438 79.242188 44.871094 C 80.519531 43.390625 81.191406 42.582031 82.472656 41.84375 C 83.816406 41.035156 86.308594 41.304688 87.179688 40.363281 C 87.921875 39.554688 87.519531 37.941406 87.988281 37.132812 C 88.394531 36.460938 89.066406 35.988281 89.671875 35.652344 C 90.34375 35.316406 91.152344 35.113281 91.890625 35.113281 C 92.632812 35.113281 93.371094 35.25 94.042969 35.652344 C 94.851562 36.191406 95.59375 36.796875 96.265625 38.140625 C 97.746094 41.304688 98.285156 50.253906 99.628906 55.972656 C 100.910156 61.355469 102.320312 66.875 104.003906 71.652344 C 105.417969 75.890625 106.761719 78.917969 108.847656 83.292969 C 111.675781 89.28125 116.921875 97.828125 119.882812 104.015625 C 122.171875 108.726562 123.652344 111.753906 125.46875 116.9375 C 128.09375 124.269531 130.984375 139.679688 133.140625 144.390625 C 134.015625 146.207031 134.015625 147.015625 135.425781 147.886719 C 138.453125 149.707031 147.808594 149.4375 153.324219 149.707031 C 158.171875 149.90625 162.273438 149.90625 166.851562 149.503906 C 171.492188 149.03125 177.886719 148.292969 180.980469 147.015625 C 182.664062 146.273438 183.203125 145.667969 184.546875 144.390625 C 186.902344 141.96875 191.007812 136.585938 192.957031 132.882812 C 194.574219 129.855469 195.378906 127.972656 196.121094 124.136719 C 197.398438 117.542969 199.621094 99.574219 196.859375 96.078125 C 195.582031 94.460938 193.363281 95.132812 191.277344 94.933594 C 188.785156 94.664062 186.164062 94.597656 182.796875 94.867188 C 177.550781 95.203125 169.273438 96.546875 163.285156 97.757812 C 157.902344 98.902344 151.039062 101.796875 148.277344 101.730469 C 147.203125 101.730469 146.730469 101.527344 146.058594 101.125 C 145.386719 100.785156 144.78125 100.179688 144.375 99.507812 C 143.972656 98.902344 143.703125 98.09375 143.636719 97.355469 C 143.570312 96.613281 143.703125 95.742188 143.972656 95.066406 C 144.308594 94.328125 144.578125 93.921875 145.386719 93.183594 C 147.742188 91.03125 156.691406 86.523438 161.199219 83.089844 C 164.898438 80.195312 167.523438 77.503906 170.6875 74.410156 C 174.183594 71.046875 177.820312 67.480469 181.316406 63.507812 C 185.019531 59.203125 188.785156 53.28125 192.152344 49.445312 C 194.640625 46.550781 196.523438 44.332031 199.148438 42.3125 C 201.839844 40.226562 205.945312 37.46875 208.164062 37.265625 C 209.511719 37.132812 210.585938 37.671875 211.394531 38.277344 C 212.203125 38.949219 212.875 40.292969 213.078125 41.167969 C 213.28125 41.976562 213.210938 42.71875 212.941406 43.457031 C 212.539062 44.332031 211.933594 45.410156 210.789062 46.082031 C 209.039062 47.089844 206.414062 47.292969 202.511719 47.628906 C 192.957031 48.4375 162.613281 47.226562 153.257812 46.6875 C 149.558594 46.484375 147.335938 46.484375 145.453125 46.015625 C 144.308594 45.679688 143.433594 45.339844 142.828125 44.667969 C 142.15625 43.996094 141.753906 42.785156 141.683594 41.976562 C 141.617188 41.304688 141.820312 40.632812 142.15625 40.027344 C 142.425781 39.488281 142.828125 38.882812 143.433594 38.546875 C 144.105469 38.074219 146.261719 37.738281 146.261719 37.738281 " clip-rule="nonzero"/></clipPath><clipPath id="d095c8a505"><rect x="0" width="246" y="0" height="210"/></clipPath></defs><g clip-path="url(#257a692d41)"><g clip-path="url(#b8fc39b415)"><g transform="matrix(1, 0, 0, 1, 58, 124)"><g clip-path="url(#d095c8a505)"><g clip-path="url(#04b67546d9)"><g clip-path="url(#02c6e10ba0)"><rect x="-192.64" width="881.28" fill="#cbbb80" height="1140.479991" y="-298.239999" fill-opacity="1"/></g></g></g></g></g></g></svg>