<svg xmlns="http://www.w3.org/2000/svg" xmlns:xlink="http://www.w3.org/1999/xlink" width="1080" zoomAndPan="magnify" viewBox="0 0 810 809.999993" height="1080" preserveAspectRatio="xMidYMid meet" version="1.0"><defs><clipPath id="205fef83d5"><path d="M 243 243 L 567 243 L 567 566 L 243 566 Z M 243 243 " clip-rule="nonzero"/></clipPath><clipPath id="89d6101b61"><path d="M 332 302 L 481 302 L 481 567 L 332 567 Z M 332 302 " clip-rule="nonzero"/></clipPath></defs><g clip-path="url(#205fef83d5)"><path fill="#0866ff" d="M 567.042969 405.027344 C 567.042969 315.535156 494.507812 243 405.027344 243 C 315.550781 243 243 315.535156 243 405.027344 C 243 481.011719 295.308594 544.78125 365.882812 562.289062 L 365.882812 454.546875 L 332.464844 454.546875 L 332.464844 405.027344 L 365.882812 405.027344 L 365.882812 383.695312 C 365.882812 328.550781 390.835938 302.988281 444.976562 302.988281 C 455.242188 302.988281 472.957031 304.992188 480.199219 307.015625 L 480.199219 351.890625 C 476.371094 351.484375 469.726562 351.28125 461.480469 351.28125 C 434.914062 351.28125 424.644531 361.34375 424.644531 387.503906 L 424.644531 405.015625 L 477.566406 405.015625 L 468.476562 454.53125 L 424.644531 454.53125 L 424.644531 565.851562 C 504.875 556.167969 567.042969 487.847656 567.042969 405.015625 Z M 567.042969 405.027344 " fill-opacity="1" fill-rule="nonzero"/></g><g clip-path="url(#89d6101b61)"><path fill="#ffffff" d="M 468.492188 454.53125 L 477.578125 405.015625 L 424.660156 405.015625 L 424.660156 387.503906 C 424.660156 361.34375 434.929688 351.28125 461.496094 351.28125 C 469.742188 351.28125 476.386719 351.484375 480.210938 351.890625 L 480.210938 307.015625 C 472.96875 305.007812 455.257812 302.988281 444.992188 302.988281 C 390.851562 302.988281 365.894531 328.550781 365.894531 383.695312 L 365.894531 405.027344 L 332.476562 405.027344 L 332.476562 454.546875 L 365.894531 454.546875 L 365.894531 562.289062 C 378.429688 565.398438 391.535156 567.058594 405.042969 567.058594 C 411.6875 567.058594 418.234375 566.652344 424.675781 565.867188 L 424.675781 454.546875 L 468.503906 454.546875 Z M 468.492188 454.53125 " fill-opacity="1" fill-rule="nonzero"/></g></svg>