<svg xmlns="http://www.w3.org/2000/svg" version="1.1" viewBox="-5.0 -10.0 110.0 135.0">
 <g>
  <path d="m49.898 1.0117c-26.867 0-48.688 21.816-48.688 48.684 0 26.867 21.816 48.688 48.688 48.688 26.867 0 48.688-21.816 48.688-48.688 0-26.867-21.816-48.684-48.688-48.684zm0 90.301c-22.93 0-41.617-18.688-41.617-41.617 0-22.926 18.688-41.613 41.617-41.613 22.93 0 41.617 18.688 41.617 41.617 0 22.926-18.688 41.613-41.617 41.613z" fill="#a669af"/>
  <path d="m78.586 52.625c-1.918-0.30469-3.7383 0.91016-4.0391 2.8281-2.0195 11.816-12.426 20.402-24.645 20.402-12.324 0-22.727-8.7891-24.645-20.91-0.30469-1.918-2.1211-3.2305-4.0391-2.9297-1.918 0.30469-3.2305 2.1211-2.9297 4.0391 2.5234 15.555 15.859 26.77 31.719 26.77 15.656 0 28.891-11.012 31.516-26.262 0.29297-1.8164-1.0195-3.6328-2.9375-3.9375z" fill="#a669af"/>
  <path d="m30.605 40.305c0.30469 0.20312 0.60547 0.40234 1.0117 0.50391 0.30469 0.10156 0.70703 0.20312 1.0117 0.30469 0.40234 0.10156 0.70703 0.10156 1.1094 0.10156 0.40234 0 0.70703 0 1.1094-0.10156 0.40234-0.10156 0.70703-0.20312 1.0117-0.30469 0.30469-0.10156 0.60547-0.30469 0.91016-0.50391 0.30469-0.20313 0.60547-0.40234 0.80859-0.70703 0.20312-0.30469 0.50391-0.50391 0.70703-0.80859 0.20312-0.30469 0.40234-0.60547 0.50391-1.0117 0.10156-0.30469 0.20313-0.70703 0.30469-1.0117 0.10156-0.40234 0.10156-0.70703 0.10156-1.1094s0-0.70703-0.10156-1.1094-0.20312-0.70703-0.30469-1.0117c-0.10156-0.30469-0.30469-0.70703-0.50391-1.0117-0.20312-0.30469-0.40234-0.60547-0.70703-0.80859-1.0117-1.0117-2.4258-1.6172-3.9375-1.6172-1.5156 0-2.9297 0.60547-3.9375 1.6172-1.0117 1.0117-1.6172 2.4258-1.6172 3.9375 0 1.4141 0.60547 2.9297 1.6172 3.9375 0.39844 0.20703 0.60156 0.51172 0.90234 0.71484z" fill="#a669af"/>
  <path d="m60.91 37.777c0.10156 0.30469 0.30469 0.70703 0.50391 1.0117 0.20313 0.30469 0.40234 0.60547 0.70703 0.80859 0.20312 0.20312 0.50391 0.50391 0.80859 0.70703 0.30469 0.20312 0.60547 0.40234 1.0117 0.50391 0.30469 0.10156 0.70703 0.20312 1.0117 0.30469 0.30469 0.10156 0.70703 0.10156 1.1094 0.10156s0.70703 0 1.1094-0.10156c0.40234-0.10156 0.70703-0.20312 1.0117-0.30469 0.30469-0.10156 0.60547-0.30469 1.0117-0.50391 0.30469-0.20313 0.60547-0.40234 0.80859-0.70703 0.20312-0.30469 0.50391-0.50391 0.70703-0.80859 0.20312-0.30469 0.40234-0.60547 0.50391-1.0117 0.10156-0.30469 0.20312-0.70703 0.30469-1.0117 0.10156-0.40234 0.10156-0.70703 0.10156-1.1094s0-0.70703-0.10156-1.1094c-0.10156-0.40234-0.20312-0.70703-0.30469-1.0117-0.10156-0.30469-0.30469-0.70703-0.50391-1.0117-0.20313-0.30469-0.40234-0.60547-0.70703-0.80859-0.30469-0.20312-0.50391-0.50391-0.80859-0.70703-0.30469-0.20312-0.60547-0.40234-1.0117-0.50391-0.30469-0.10156-0.70703-0.20312-1.0117-0.30469-0.70703-0.10156-1.4141-0.10156-2.1211 0-0.40234 0.10156-0.70703 0.20312-1.0117 0.30469-0.30469 0.10156-0.70703 0.30469-1.0117 0.50391-0.30469 0.20313-0.60547 0.40234-0.80859 0.70703-0.19922 0.30469-0.60156 0.60938-0.80469 0.91016-0.20312 0.30469-0.40234 0.60547-0.50391 1.0117-0.10156 0.30469-0.20312 0.70703-0.30469 1.0117-0.10156 0.40234-0.10156 0.70703-0.10156 1.1094 0 0.40234 0 0.70703 0.10156 1.1094 0.10156 0.40625 0.20312 0.60937 0.30469 0.91016z" fill="#a669af"/>
 </g>
<text x="0.0" y="117.5" font-size="5.0" font-weight="bold" font-family="Arbeit Regular, Helvetica, Arial-Unicode, Arial, Sans-serif" fill="#000000">Created by Mapps</text><text x="0.0" y="122.5" font-size="5.0" font-weight="bold" font-family="Arbeit Regular, Helvetica, Arial-Unicode, Arial, Sans-serif" fill="#000000">from Noun Project</text></svg>